<svg id="visual" viewBox="0 0 900 600" width="900" height="600" xmlns="http://www.w3.org/2000/svg" xmlns:xlink="http://www.w3.org/1999/xlink" version="1.1"><path d="M0 222L21.5 223.3C43 224.7 86 227.3 128.8 235.7C171.7 244 214.3 258 257.2 258.7C300 259.3 343 246.7 385.8 230.5C428.7 214.3 471.3 194.7 514.2 202.2C557 209.7 600 244.3 642.8 266.2C685.7 288 728.3 297 771.2 284.3C814 271.7 857 237.3 878.5 220.2L900 203L900 0L878.5 0C857 0 814 0 771.2 0C728.3 0 685.7 0 642.8 0C600 0 557 0 514.2 0C471.3 0 428.7 0 385.8 0C343 0 300 0 257.2 0C214.3 0 171.7 0 128.8 0C86 0 43 0 21.5 0L0 0Z" fill="#040c14" stroke-linecap="round" stroke-linejoin="miter"></path></svg>